<?xml version="1.0"?>
<svg xmlns="http://www.w3.org/2000/svg" xmlns:xlink="http://www.w3.org/1999/xlink" version="1.1" id="Capa_1" x="0px" y="0px" viewBox="0 0 511.995 511.995" style="enable-background:new 0 0 511.995 511.995;" xml:space="preserve"><g><g>
	<g>
		<path d="M127.997,127.995c-17.643,0-32,14.357-32,32v42.667c0,17.643,14.357,32,32,32c17.643,0,32-14.357,32-32v-42.667    C159.997,142.352,145.64,127.995,127.997,127.995z M138.664,202.661c0,5.867-4.8,10.667-10.667,10.667    c-5.867,0-10.667-4.8-10.667-10.667v-42.667c0-5.867,4.8-10.667,10.667-10.667c5.867,0,10.667,4.8,10.667,10.667V202.661z" data-original="#000000" class="active-path" fill="#000000"/>
	</g>
</g><g>
	<g>
		<path d="M213.331,127.995h-21.333c-5.888,0-10.667,4.779-10.667,10.667v85.333c0,5.888,4.779,10.667,10.667,10.667    s10.667-4.779,10.667-10.667v-32h10.667c17.643,0,32-14.357,32-32S230.973,127.995,213.331,127.995z M213.331,170.661h-10.667    v-21.333h10.667c5.867,0,10.667,4.8,10.667,10.667C223.997,165.861,219.197,170.661,213.331,170.661z" data-original="#000000" class="active-path" fill="#000000"/>
	</g>
</g><g>
	<g>
		<path d="M319.997,213.328h-32v-64h32c5.888,0,10.667-4.779,10.667-10.667s-4.779-10.667-10.667-10.667h-42.667    c-5.888,0-10.667,4.779-10.667,10.667v85.333c0,5.888,4.779,10.667,10.667,10.667h42.667c5.888,0,10.667-4.779,10.667-10.667    S325.885,213.328,319.997,213.328z" data-original="#000000" class="active-path" fill="#000000"/>
	</g>
</g><g>
	<g>
		<path d="M309.331,170.661h-32c-5.888,0-10.667,4.779-10.667,10.667s4.779,10.667,10.667,10.667h32    c5.888,0,10.667-4.779,10.667-10.667S315.219,170.661,309.331,170.661z" data-original="#000000" class="active-path" fill="#000000"/>
	</g>
</g><g>
	<g>
		<path d="M405.331,127.995c-5.888,0-10.667,4.779-10.667,10.667v40.149l-22.443-44.907c-2.219-4.416-7.104-6.891-12.011-5.611    c-4.821,1.109-8.213,5.44-8.213,10.368v85.333c0,5.888,4.779,10.667,10.667,10.667c5.888,0,10.667-4.779,10.667-10.667v-40.149    l22.464,44.928c1.835,3.669,5.547,5.888,9.536,5.888c0.811,0,1.621-0.085,2.453-0.299c4.821-1.109,8.213-5.44,8.213-10.368    v-85.333C415.997,132.773,411.219,127.995,405.331,127.995z" data-original="#000000" class="active-path" fill="#000000"/>
	</g>
</g><g>
	<g>
		<path d="M227.709,297.979c-7.637-7.637-46.187-31.061-62.165-15.083c-15.979,15.979,7.445,54.528,15.083,62.165    c6.272,6.272,14.912,9.408,23.552,9.408c8.661,0,17.28-3.136,23.531-9.408C240.253,332.517,240.253,310.523,227.709,297.979z     M212.648,329.979c-4.203,4.203-12.715,4.203-16.917,0c-6.144-6.144-14.229-24.171-14.464-31.381    c7.211,0.235,25.237,8.32,31.381,14.464C216.829,317.243,216.829,325.797,212.648,329.979z" data-original="#000000" class="active-path" fill="#000000"/>
	</g>
</g><g>
	<g>
		<path d="M327.528,429.797l-96-96c-4.16-4.16-10.923-4.16-15.083,0c-4.16,4.16-4.16,10.923,0,15.083l96,96    c2.091,2.069,4.821,3.115,7.552,3.115c2.731,0,5.461-1.045,7.531-3.115C331.688,440.72,331.688,433.957,327.528,429.797z" data-original="#000000" class="active-path" fill="#000000"/>
	</g>
</g><g>
	<g>
		<path d="M346.28,278.565c-4.139-2.197-9.237-1.387-12.501,1.899L184.445,429.797c-4.16,4.16-4.16,10.923,0,15.083    c2.091,2.069,4.821,3.115,7.552,3.115c2.731,0,5.461-1.045,7.531-3.115l91.776-91.776c11.861,2.517,28.075,3.947,36.224-4.224    c16.085-16.085,23.509-54.635,24.299-58.965C352.659,285.328,350.397,280.741,346.28,278.565z M313.277,333.179    c-0.555,0.213-1.408,0.384-2.517,0.469l7.04-7.04C316.349,329.317,314.835,331.579,313.277,333.179z" data-original="#000000" class="active-path" fill="#000000"/>
	</g>
</g><g>
	<g>
		<path d="M426.664,63.995H85.331c-41.173,0-74.667,33.493-74.667,74.667v298.667c0,41.173,33.493,74.667,74.667,74.667h341.333    c41.173,0,74.667-33.493,74.667-74.667V138.661C501.331,97.488,467.837,63.995,426.664,63.995z M479.997,437.328    c0,29.419-23.915,53.333-53.333,53.333H85.331c-29.419,0-53.333-23.915-53.333-53.333V138.661    c0-29.419,23.915-53.333,53.333-53.333h341.333c29.419,0,53.333,23.915,53.333,53.333V437.328z" data-original="#000000" class="active-path" fill="#000000"/>
	</g>
</g><g>
	<g>
		<path d="M409.555,64.848l-149.333-64c-2.709-1.131-5.717-1.131-8.427,0l-149.333,64c-5.419,2.325-7.915,8.597-5.611,14.016    c2.347,5.44,8.619,7.872,14.016,5.611l145.131-62.208l145.131,62.208c1.365,0.576,2.795,0.853,4.203,0.853    c4.117,0,8.064-2.411,9.835-6.464C417.469,73.445,414.973,67.173,409.555,64.848z" data-original="#000000" class="active-path" fill="#000000"/>
	</g>
</g></g> </svg>
